<?xml version="1.0" standalone="no"?>
<!DOCTYPE svg PUBLIC "-//W3C//DTD SVG 20010904//EN"
 "http://www.w3.org/TR/2001/REC-SVG-20010904/DTD/svg10.dtd">
<svg version="1.0" xmlns="http://www.w3.org/2000/svg"
 width="640.000000pt" height="640.000000pt" viewBox="0 0 640.000000 640.000000"
 preserveAspectRatio="xMidYMid meet">

<g transform="translate(0.000000,640.000000) scale(0.100000,-0.100000)"
fill="#000000" stroke="none">
<path d="M320 3505 l0 -605 50 0 c49 0 50 -1 50 -30 0 -29 -1 -30 -50 -30
l-50 0 0 -50 0 -50 63 0 c63 0 63 0 84 -37 12 -21 27 -57 34 -81 l12 -43 51 3
c47 3 51 5 56 33 15 71 83 150 154 179 62 26 162 21 224 -10 64 -32 118 -93
136 -154 l13 -45 61 -3 c60 -3 62 -2 68 25 40 166 233 257 380 181 64 -34 121
-98 138 -158 l13 -45 53 0 52 0 31 77 32 78 213 0 c116 0 212 -4 212 -8 0 -4
-15 -12 -32 -17 l-33 -10 0 -70 0 -70 249 -3 c193 -2 251 1 258 10 13 22 9
118 -6 134 -8 8 -28 14 -45 14 -17 0 -31 5 -31 10 0 6 92 10 255 10 l255 0 0
50 0 50 -90 0 -90 0 0 30 0 30 365 0 c318 0 365 -2 365 -15 0 -12 -20 -15
-117 -16 -104 0 -127 -4 -193 -28 -70 -26 -75 -31 -78 -60 -2 -17 1 -31 7 -31
6 0 11 -7 11 -15 0 -14 24 -54 95 -157 25 -36 29 -38 84 -38 l57 0 12 60 c15
70 57 131 122 174 37 26 55 30 126 34 71 4 89 1 129 -18 83 -40 139 -116 152
-205 l6 -45 188 0 189 0 0 -30 0 -30 258 2 c221 3 257 5 256 18 -1 13 15 14
98 12 l98 -4 0 39 c0 68 40 155 92 198 55 47 106 65 183 65 83 0 136 -21 188
-74 44 -47 65 -90 78 -165 l11 -59 63 0 c93 -1 93 0 97 198 3 158 4 166 25
183 21 17 23 27 23 117 0 75 -3 101 -14 107 -10 5 -16 34 -19 88 -6 97 -16
155 -27 155 -4 0 -13 28 -20 63 -6 34 -18 94 -25 132 -7 39 -20 106 -29 150
-8 44 -15 94 -16 112 0 35 1 34 -116 52 -33 5 -86 23 -119 41 -74 40 -245 97
-316 105 -30 4 -63 10 -74 15 -11 4 -56 13 -100 20 -44 7 -88 16 -97 21 -9 5
-33 9 -52 9 -34 0 -36 -2 -50 -52 -8 -29 -18 -71 -23 -93 -8 -38 -11 -41 -68
-60 -33 -11 -65 -23 -71 -27 -26 -17 -48 -278 -60 -713 l-7 -240 116 -23 c157
-31 187 -40 187 -57 0 -17 -13 -19 -38 -5 -9 5 -73 21 -142 35 -119 24 -141
25 -463 25 -293 0 -337 2 -337 15 0 13 25 15 165 15 l165 0 0 605 0 605 -2055
0 -2055 0 0 -605z m4060 5 l0 -520 -2000 0 -2000 0 0 520 0 520 2000 0 2000 0
0 -520z m1554 123 c6 -29 33 -187 43 -256 l6 -38 -192 3 c-177 3 -194 5 -207
22 -18 26 -20 266 -2 284 8 8 62 12 179 12 l167 0 6 -27z m-5014 -763 l0 -30
-215 0 -215 0 0 30 0 30 215 0 215 0 0 -30z m2100 0 l0 -30 -430 0 -430 0 0
30 0 30 430 0 430 0 0 -30z m-270 -140 c0 -6 -62 -10 -165 -10 -103 0 -165 4
-165 10 0 6 62 10 165 10 103 0 165 -4 165 -10z"/>
<path d="M400 3510 l0 -500 1980 0 1980 0 0 500 0 500 -1980 0 -1980 0 0 -500z
m1460 225 c0 -25 5 -45 10 -45 6 0 10 20 10 45 0 41 2 45 25 45 l25 0 0 -115
0 -115 -25 0 c-23 0 -25 3 -25 50 0 28 -4 50 -10 50 -5 0 -10 -22 -10 -50 0
-47 -2 -50 -25 -50 l-25 0 0 115 0 115 25 0 c23 0 25 -4 25 -45z m190 25 c0
-16 -7 -20 -30 -20 -25 0 -30 -4 -30 -25 0 -20 5 -25 25 -25 18 0 25 -5 25
-20 0 -15 -7 -20 -25 -20 -21 0 -25 -5 -25 -30 0 -27 3 -30 30 -30 23 0 30 -4
30 -20 0 -18 -7 -20 -55 -20 l-55 0 0 115 0 115 55 0 c48 0 55 -2 55 -20z
m114 4 c24 -23 29 -59 16 -99 -10 -29 -9 -43 4 -75 l16 -40 -26 0 c-19 0 -29
8 -42 38 l-17 37 -3 -38 c-3 -33 -6 -38 -25 -35 -21 3 -22 9 -25 102 -1 55 0
106 2 113 7 19 81 17 100 -3z m107 -26 l14 -43 3 43 c3 37 6 42 28 42 l24 0 0
-116 0 -115 -27 3 c-21 2 -29 12 -42 48 l-16 45 -3 -48 c-3 -43 -5 -48 -25
-45 -21 3 -22 9 -25 102 -3 116 -1 126 31 126 19 0 27 -8 38 -42z m211 -58
c23 -128 23 -132 -4 -128 -16 2 -24 12 -28 33 -8 45 -37 45 -46 1 -5 -29 -11
-36 -30 -36 -13 0 -24 1 -24 3 0 2 9 52 20 112 11 60 20 111 20 113 0 2 17 2
37 0 l37 -3 18 -95z m99 50 l18 -45 0 48 c1 43 3 47 26 47 l25 0 0 -115 0
-115 -25 0 c-21 0 -30 9 -45 43 l-19 42 0 -42 c-1 -39 -3 -43 -26 -43 l-25 0
0 116 0 115 26 -3 c21 -2 30 -13 45 -48z m179 30 c16 -16 20 -33 20 -95 0 -91
-17 -115 -80 -115 l-40 0 0 115 0 115 40 0 c27 0 47 -7 60 -20z m140 0 c0 -16
-7 -20 -30 -20 -25 0 -30 -4 -30 -25 0 -20 5 -25 25 -25 18 0 25 -5 25 -20 0
-15 -7 -20 -25 -20 -21 0 -25 -5 -25 -30 0 -27 3 -30 30 -30 23 0 30 -4 30
-20 0 -18 -7 -20 -55 -20 l-55 0 0 115 0 115 55 0 c48 0 55 -2 55 -20z m150
-4 c0 -14 -18 -55 -40 -93 l-39 -68 39 -3 c32 -3 40 -7 40 -23 0 -17 -7 -19
-70 -19 -64 0 -70 2 -70 21 0 11 18 51 40 88 22 37 40 70 40 74 0 4 -18 7 -40
7 -33 0 -40 3 -40 20 0 18 7 20 70 20 67 0 70 -1 70 -24z m-920 -296 c6 -12 8
-31 4 -43 -9 -25 -9 -24 1 -54 5 -17 2 -23 -10 -23 -8 0 -20 10 -25 23 l-9 22
0 -22 c-1 -14 -7 -23 -16 -23 -12 0 -15 13 -15 55 0 42 -3 55 -15 55 -12 0
-15 -13 -15 -55 0 -48 -2 -55 -20 -55 -18 0 -20 7 -20 55 0 30 -4 55 -10 55
-5 0 -10 7 -10 15 0 12 15 15 75 15 65 0 76 -3 85 -20z m52 -37 l2 -58 3 57 4
56 77 0 c46 0 80 -5 84 -12 6 -8 8 -7 8 2 0 6 9 12 20 12 23 0 25 -8 5 -33
-11 -16 -11 -25 1 -59 17 -50 17 -48 -1 -48 -9 0 -20 10 -25 23 -9 22 -9 22
-9 1 -1 -20 -7 -22 -56 -23 -30 0 -57 4 -61 10 -4 7 -10 6 -19 -1 -8 -6 -24
-10 -37 -8 -21 3 -23 9 -26 71 -2 55 0 67 13 67 11 0 15 -13 17 -57z m356 45
c9 -9 12 -9 12 0 0 8 17 12 45 12 27 0 45 -5 45 -11 0 -8 4 -8 13 -1 7 6 42
10 77 9 l65 -2 0 -52 c1 -29 4 -55 8 -59 4 -4 7 20 7 54 l0 62 40 0 c29 0 40
-4 40 -15 0 -8 -9 -15 -20 -15 -11 0 -20 -4 -20 -10 0 -5 7 -10 15 -10 8 0 15
-7 15 -15 0 -8 -7 -15 -15 -15 -8 0 -15 -7 -15 -15 0 -8 9 -15 20 -15 11 0 20
-7 20 -15 0 -23 -105 -21 -119 3 -9 15 -10 15 -11 0 0 -13 -11 -16 -52 -16
-60 -1 -68 6 -68 66 0 31 -4 42 -15 42 -12 0 -15 -13 -15 -55 0 -42 -3 -55
-15 -55 -11 0 -15 13 -15 54 l0 54 -40 -1 c-45 -2 -50 -8 -17 -22 26 -12 35
-56 13 -74 -21 -18 -60 -10 -64 13 -3 15 0 18 17 13 13 -3 21 0 21 8 0 7 -9
15 -20 18 -14 4 -20 14 -20 34 0 16 3 33 7 36 11 11 48 8 61 -5z"/>
<path d="M2110 3705 c0 -25 4 -35 13 -32 6 2 12 16 12 32 0 16 -6 30 -12 33
-9 2 -13 -8 -13 -33z"/>
<path d="M2421 3674 c0 -11 3 -14 6 -6 3 7 2 16 -1 19 -3 4 -6 -2 -5 -13z"/>
<path d="M2710 3665 c0 -48 4 -74 10 -70 6 3 10 35 10 70 0 35 -4 67 -10 70
-6 4 -10 -22 -10 -70z"/>
<path d="M2092 3430 c0 -14 2 -19 5 -12 2 6 2 18 0 25 -3 6 -5 1 -5 -13z"/>
<path d="M2260 3410 c0 -34 3 -41 16 -36 9 3 20 6 25 6 5 0 9 14 9 30 0 17 -4
30 -9 30 -5 0 -16 3 -25 6 -13 5 -16 -2 -16 -36z"/>
<path d="M2683 3410 c0 -25 2 -35 4 -22 2 12 2 32 0 45 -2 12 -4 2 -4 -23z"/>
<path d="M2762 3430 c0 -14 2 -19 5 -12 2 6 2 18 0 25 -3 6 -5 1 -5 -13z"/>
<path d="M774 2766 c-93 -43 -152 -148 -141 -248 7 -53 50 -134 81 -152 11 -6
27 -19 37 -28 21 -19 81 -38 124 -38 98 0 217 99 237 197 13 61 11 107 -6 147
-54 125 -206 181 -332 122z m190 -107 c37 -29 56 -71 56 -125 0 -39 -5 -51
-33 -79 -38 -38 -103 -61 -143 -51 -46 12 -91 66 -99 119 -9 57 6 97 47 132
40 34 132 36 172 4z"/>
<path d="M1434 2766 c-27 -13 -65 -41 -82 -62 -142 -172 -8 -422 215 -399 123
13 213 111 213 232 0 77 -12 115 -51 165 -67 84 -191 111 -295 64z m166 -101
c59 -30 81 -89 64 -172 -7 -36 -74 -83 -119 -83 -69 0 -145 69 -145 132 0 48
46 115 90 131 29 11 81 7 110 -8z"/>
<path d="M3855 2766 c-86 -40 -126 -102 -132 -203 -6 -105 18 -151 122 -232
20 -15 79 -31 115 -31 89 0 188 63 224 143 58 127 -2 278 -130 332 -55 23
-140 19 -199 -9z m182 -113 c33 -22 53 -64 53 -114 0 -35 -6 -48 -39 -80 -35
-35 -44 -39 -88 -39 -56 0 -93 22 -118 70 -60 116 81 236 192 163z"/>
<path d="M3889 2621 c-64 -64 -18 -181 71 -181 37 0 81 30 96 65 44 105 -87
196 -167 116z"/>
<path d="M5490 2769 c-19 -12 -36 -25 -38 -30 -2 -5 -9 -9 -16 -9 -15 0 -60
-61 -75 -103 -19 -48 -13 -128 13 -183 55 -118 199 -176 311 -125 104 47 149
118 150 231 0 66 -4 81 -30 123 -17 28 -51 61 -80 80 -43 28 -60 32 -125 35
-63 3 -81 0 -110 -19z m173 -111 c29 -15 57 -70 57 -111 0 -84 -56 -133 -142
-125 -54 6 -79 23 -103 75 -52 110 77 221 188 161z"/>
<path d="M5544 2639 c-28 -14 -54 -61 -54 -97 0 -41 42 -90 84 -98 43 -8 91
16 112 57 44 87 -52 181 -142 138z"/>
</g>
</svg>
